<?xml version="1.0" encoding="UTF-8"?>
<svg version="1.1" xmlns="http://www.w3.org/2000/svg" width="90" height="88">
<path d="M0 0 C29.7 0 59.4 0 90 0 C90 29.04 90 58.08 90 88 C60.3 88 30.6 88 0 88 C0 58.96 0 29.92 0 0 Z " fill="#404040" transform="translate(0,0)"/>
<path d="M0 0 C0.83273438 -0.020625 1.66546875 -0.04125 2.5234375 -0.0625 C3.32007813 -0.06765625 4.11671875 -0.0728125 4.9375 -0.078125 C5.66839844 -0.0874707 6.39929688 -0.09681641 7.15234375 -0.10644531 C7.76207031 0.01118164 8.37179688 0.12880859 9 0.25 C11 3.25 11 3.25 11 6.25 C11.804375 6.394375 12.60875 6.53875 13.4375 6.6875 C16 7.25 16 7.25 17 8.25 C17.08651611 9.66570123 17.10704904 11.085595 17.09765625 12.50390625 C17.09443359 13.35791016 17.09121094 14.21191406 17.08789062 15.09179688 C17.07951172 15.98962891 17.07113281 16.88746094 17.0625 17.8125 C17.05798828 18.71419922 17.05347656 19.61589844 17.04882812 20.54492188 C17.03700225 22.78001314 17.0205222 25.01497437 17 27.25 C13.57851142 28.96074429 9.77061317 28.47665255 6 28.5 C4.75089844 28.5309375 4.75089844 28.5309375 3.4765625 28.5625 C2.67992187 28.56765625 1.88328125 28.5728125 1.0625 28.578125 C-0.03384766 28.59214355 -0.03384766 28.59214355 -1.15234375 28.60644531 C-2.06693359 28.43000488 -2.06693359 28.43000488 -3 28.25 C-5 25.25 -5 25.25 -5 22.25 C-5.804375 22.105625 -6.60875 21.96125 -7.4375 21.8125 C-10 21.25 -10 21.25 -11 20.25 C-11.08651611 18.83429877 -11.10704904 17.414405 -11.09765625 15.99609375 C-11.09443359 15.14208984 -11.09121094 14.28808594 -11.08789062 13.40820312 C-11.07951172 12.51037109 -11.07113281 11.61253906 -11.0625 10.6875 C-11.05798828 9.78580078 -11.05347656 8.88410156 -11.04882812 7.95507812 C-11.03700225 5.71998686 -11.0205222 3.48502563 -11 1.25 C-7.57851142 -0.46074429 -3.77061317 0.02334745 0 0 Z " fill="#EBEDF0" transform="translate(47,35.75)"/>
<path d="M0 0 C5.61 0 11.22 0 17 0 C17.020625 2.619375 17.04125 5.23875 17.0625 7.9375 C17.071604 8.7637085 17.08070801 9.58991699 17.09008789 10.44116211 C17.09723945 12.29433759 17.0502852 14.14749308 17 16 C16 17 16 17 12.40234375 17.09765625 C10.91402745 17.09191272 9.42573704 17.07889891 7.9375 17.0625 C5.318125 17.041875 2.69875 17.02125 0 17 C0 11.39 0 5.78 0 0 Z " fill="#516076" transform="translate(45,45)"/>
<path d="M0 0 C1.48831242 0.00667405 2.97660807 0.01863442 4.46484375 0.03515625 C5.22345703 0.03966797 5.98207031 0.04417969 6.76367188 0.04882812 C8.64326246 0.06064945 10.52281274 0.07858547 12.40234375 0.09765625 C12.40234375 1.74765625 12.40234375 3.39765625 12.40234375 5.09765625 C8.44234375 5.09765625 4.48234375 5.09765625 0.40234375 5.09765625 C0.07234375 9.05765625 -0.25765625 13.01765625 -0.59765625 17.09765625 C-1.91765625 17.09765625 -3.23765625 17.09765625 -4.59765625 17.09765625 C-4.62450304 14.45175611 -4.64441982 11.80612529 -4.66015625 9.16015625 C-4.66853516 8.40541016 -4.67691406 7.65066406 -4.68554688 6.87304688 C-4.69418066 4.94771312 -4.64989958 3.02230044 -4.59765625 1.09765625 C-3.59765625 0.09765625 -3.59765625 0.09765625 0 0 Z " fill="#5E6C80" transform="translate(42.59765625,37.90234375)"/>
<path d="M0 0 C0.33 0 0.66 0 1 0 C1 5.94 1 11.88 1 18 C2.65 18 4.3 18 6 18 C6 14.7 6 11.4 6 8 C6.33 8 6.66 8 7 8 C7 13.28 7 18.56 7 24 C6.67 23.01 6.34 22.02 6 21 C5.195625 20.855625 4.39125 20.71125 3.5625 20.5625 C1 20 1 20 0 19 C-0.08651611 17.58429877 -0.10704904 16.164405 -0.09765625 14.74609375 C-0.09443359 13.89208984 -0.09121094 13.03808594 -0.08789062 12.15820312 C-0.07951172 11.26037109 -0.07113281 10.36253906 -0.0625 9.4375 C-0.05798828 8.53580078 -0.05347656 7.63410156 -0.04882812 6.70507812 C-0.03700225 4.46998686 -0.0205222 2.23502563 0 0 Z " fill="#C2C8CF" transform="translate(36,37)"/>
<path d="M0 0 C5.94 0.33 11.88 0.66 18 1 C18 1.33 18 1.66 18 2 C12.72 2 7.44 2 2 2 C2 7.28 2 12.56 2 18 C1.67 18 1.34 18 1 18 C0.67 12.06 0.34 6.12 0 0 Z " fill="#D4D8DD" transform="translate(43,43)"/>
</svg>
