<svg width="51" height="29" viewBox="0 0 51 29" fill="none" xmlns="http://www.w3.org/2000/svg">
<circle cx="25" cy="15" r="13.5" fill="#607D95" stroke="white"/>
<path fill-rule="evenodd" clip-rule="evenodd" d="M14.4983 5.74165C14.7724 5.43097 15.0601 5.13254 15.3604 4.8473C13.0534 4.52966 10.922 4.34298 9.03412 4.28964C6.61913 4.22142 4.5739 4.37039 3.06056 4.7577C1.59269 5.13338 0.425444 5.78735 0.129318 6.89251C-0.166808 7.99767 0.517072 9.14764 1.60044 10.2069C2.71738 11.299 4.41411 12.4506 6.53967 13.5991C10.7979 15.8998 16.8785 18.2413 23.7744 20.089C30.6703 21.9368 37.1069 22.9492 41.9451 23.0859C44.3601 23.1541 46.4053 23.0052 47.9186 22.6178C49.3865 22.2422 50.5537 21.5882 50.8499 20.483C51.146 19.3779 50.4621 18.2279 49.3787 17.1686C48.2618 16.0765 46.5651 14.9249 44.4395 13.7765C42.7101 12.8421 40.6801 11.901 38.4171 10.989C38.5347 11.3831 38.6355 11.7845 38.7185 12.1924C40.6785 13.0044 42.4431 13.8345 43.9642 14.6563C46.0535 15.7851 47.6583 16.885 48.6796 17.8836C49.7345 18.9151 50.0257 19.6951 49.8839 20.2242C49.7422 20.7534 49.1 21.2833 47.6707 21.6491C46.2869 22.0032 44.3472 22.1534 41.9733 22.0863C37.2337 21.9524 30.8767 20.9568 24.0332 19.1231C17.1897 17.2894 11.1866 14.9731 7.01502 12.7193C4.92565 11.5904 3.3209 10.4905 2.29955 9.49191C1.24465 8.46046 0.953463 7.68046 1.09524 7.15133C1.23702 6.6222 1.8792 6.09229 3.3085 5.72648C4.69232 5.37231 6.632 5.22218 9.00589 5.28924C10.6565 5.33587 12.5032 5.48701 14.4983 5.74165Z" fill="white"/>
<g filter="url(#filter0_f_855_559)">
<path fill-rule="evenodd" clip-rule="evenodd" d="M38.7188 12.1924C35.3033 10.7774 31.2944 9.41753 26.9462 8.25244C22.486 7.05732 18.2324 6.21821 14.4985 5.74164C14.7726 5.43096 15.0603 5.13253 15.3606 4.84729C18.9658 5.34365 23.0001 6.15979 27.205 7.28652C31.3003 8.38384 35.108 9.65531 38.4173 10.989C38.535 11.3831 38.6357 11.7845 38.7188 12.1924Z" fill="white"/>
</g>
<defs>
<filter id="filter0_f_855_559" x="10.4985" y="0.84729" width="32.2202" height="15.3451" filterUnits="userSpaceOnUse" color-interpolation-filters="sRGB">
<feFlood flood-opacity="0" result="BackgroundImageFix"/>
<feBlend mode="normal" in="SourceGraphic" in2="BackgroundImageFix" result="shape"/>
<feGaussianBlur stdDeviation="2" result="effect1_foregroundBlur_855_559"/>
</filter>
</defs>
</svg>
