<?xml version="1.0" standalone="no"?>
<!DOCTYPE svg PUBLIC "-//W3C//DTD SVG 20010904//EN"
 "http://www.w3.org/TR/2001/REC-SVG-20010904/DTD/svg10.dtd">
<svg version="1.0" xmlns="http://www.w3.org/2000/svg"
 width="300.000000pt" height="244.000000pt" viewBox="0 0 300.000000 244.000000"
 preserveAspectRatio="xMidYMid meet">
<metadata>
Created by potrace 1.10, written by Peter Selinger 2001-2011
</metadata>
<g transform="translate(0.000000,244.000000) scale(0.100000,-0.100000)"
fill="#fff" stroke="none">
<path d="M2530 1923 c-145 -2 -223 -7 -238 -15 -22 -12 -68 -98 -210 -398 -22
-47 -72 -152 -112 -235 -40 -82 -91 -190 -115 -240 -90 -193 -118 -244 -127
-239 -6 4 -32 52 -58 108 -46 98 -79 146 -101 146 -17 0 -68 -59 -75 -85 -6
-25 -6 -25 96 -241 68 -142 93 -174 138 -174 49 0 76 26 117 112 21 45 83 175
137 287 54 112 98 205 98 207 0 2 23 50 51 106 28 57 80 168 116 248 37 80 69
147 72 150 3 3 17 28 31 55 l25 50 113 3 c61 1 112 0 112 -3 0 -3 -7 -19 -15
-34 -8 -16 -11 -31 -8 -35 4 -3 2 -6 -4 -6 -6 0 -18 -17 -26 -38 -15 -37 -300
-623 -318 -652 -5 -8 -19 -35 -31 -60 -12 -25 -79 -162 -149 -305 -122 -250
-133 -275 -130 -302 2 -19 58 -44 87 -39 50 9 2 -82 621 1176 96 195 179 368
184 384 7 25 5 32 -13 45 -36 26 -42 26 -268 24z m257 -43 c-2 -3 -62 -124
-134 -270 -72 -146 -235 -476 -363 -735 -127 -259 -238 -487 -247 -507 -14
-36 -18 -38 -58 -38 l-43 0 120 243 c119 240 304 615 505 1026 57 117 103 214
101 215 -2 0 -75 0 -163 -2 l-160 -3 -16 -37 c-9 -20 -139 -295 -289 -609
l-273 -573 -38 0 c-29 0 -39 5 -44 20 -3 11 -40 90 -81 175 -41 85 -74 160
-74 167 1 7 9 29 20 48 l18 35 10 -25 c6 -14 31 -70 57 -125 26 -55 58 -124
72 -154 l24 -54 53 114 c51 109 273 574 443 929 l79 165 242 0 c133 0 241 -2
239 -5z"/>
<path d="M347 1902 c-24 -26 -21 -62 7 -119 41 -79 166 -343 166 -348 0 -2 38
-84 85 -182 47 -98 96 -200 110 -228 13 -27 48 -101 79 -162 30 -62 51 -113
48 -113 -4 0 -2 -4 3 -8 6 -4 30 -50 54 -102 91 -194 143 -296 164 -317 19
-19 25 -21 45 -10 13 7 32 28 42 47 32 59 147 304 155 328 3 12 11 22 16 22 5
0 9 6 9 14 0 8 9 31 20 53 20 40 121 252 196 413 57 122 59 125 72 125 12 0
52 -71 52 -92 0 -7 4 -13 9 -13 5 0 17 -23 27 -51 17 -46 62 -99 84 -99 5 0
21 16 36 36 44 57 38 83 -56 271 -77 152 -89 170 -123 186 -36 18 -38 18 -70
0 -22 -13 -43 -40 -67 -89 -57 -116 -256 -532 -290 -609 -12 -27 -39 -84 -60
-126 -22 -42 -36 -79 -33 -83 4 -3 2 -6 -4 -6 -6 0 -13 -10 -16 -22 -7 -27
-25 -14 -48 34 -9 18 -34 71 -56 118 -23 47 -49 103 -58 125 -10 22 -51 108
-91 192 -40 84 -90 187 -110 230 -20 43 -72 152 -115 242 -44 89 -82 174 -85
187 l-6 24 103 0 c57 0 109 -4 115 -8 13 -9 36 -49 73 -132 36 -80 126 -271
192 -406 27 -56 59 -110 70 -120 19 -17 23 -17 47 -3 15 8 40 41 59 79 29 58
153 318 203 425 10 22 37 79 59 128 33 70 39 91 31 107 -23 42 -81 52 -121 21
-24 -18 -43 -52 -89 -156 -13 -27 -42 -89 -66 -137 -23 -49 -40 -88 -36 -88 4
0 2 -4 -3 -8 -6 -4 -19 -26 -29 -50 -18 -40 -20 -41 -35 -25 -9 10 -36 63 -61
118 -24 55 -50 106 -57 113 -7 7 -13 18 -13 23 0 19 -102 225 -122 247 -21 22
-26 22 -258 22 -217 0 -238 -2 -253 -18z m533 -120 c25 -53 84 -178 131 -277
48 -100 90 -191 93 -203 4 -12 10 -22 14 -22 4 0 66 126 137 280 l130 280 43
0 42 0 -31 -62 c-58 -115 -309 -650 -309 -659 0 -5 -4 -9 -10 -9 -5 0 -10 4
-10 10 0 5 -50 114 -111 242 -61 128 -133 281 -161 341 l-51 107 -165 0 c-130
0 -162 -3 -154 -12 9 -12 577 -1202 610 -1278 l15 -35 10 25 c6 14 110 234
230 490 121 256 226 480 233 498 12 27 20 32 48 32 33 0 33 0 120 -181 87
-181 87 -181 73 -217 -14 -36 -37 -55 -37 -31 0 7 -31 79 -70 160 -38 81 -70
152 -70 158 0 6 -3 11 -7 11 -5 0 -125 -248 -268 -550 -143 -303 -263 -550
-267 -550 -5 0 -8 5 -8 11 0 5 -86 191 -191 412 -105 221 -219 460 -252 532
-34 71 -112 233 -173 360 -61 126 -110 232 -109 235 2 3 110 4 242 2 l238 -3
45 -97z"/>
</g>
</svg>
